<svg xmlns="http://www.w3.org/2000/svg" viewBox="0 0 1672 941"><defs><linearGradient id="bg" x1="0" y1="0" x2="1" y2="1"><stop stop-color="#020713"/><stop offset=".55" stop-color="#071321"/><stop offset="1" stop-color="#02050b"/></linearGradient><linearGradient id="gold" x1="0" x2="1"><stop stop-color="#f8d8a0"/><stop offset=".6" stop-color="#d8a05b"/><stop offset="1" stop-color="#8c5d31"/></linearGradient><style>.t{font-family:Inter,'PingFang SC','Microsoft YaHei',Arial,sans-serif;fill:#f7f2ea}.m{fill:#98a3b6}.g{fill:#f0c27a}.card{fill:#0d1726;stroke:#354154;stroke-width:1.2}.nav{font-size:25px}.small{font-size:22px}.mid{font-size:30px}.big{font-size:56px}.btn{fill:#111d2e;stroke:#8c6840}</style></defs><rect width="1672" height="941" fill="url(#bg)"/><path d="M205 0v941" stroke="#354153"/><g><text x="70" y="170" class="t nav">首页</text><text x="70" y="270" class="t nav">行程</text><text x="70" y="370" class="t nav">服务</text><rect x="0" y="400" width="205" height="92" rx="14" fill="#111b2c" stroke="#d8a668"/><rect x="0" y="400" width="12" height="92" fill="url(#gold)"/><text x="58" y="458" class="g nav">AI 管家</text><text x="70" y="590" class="t nav">娱乐</text><text x="70" y="690" class="t nav">Wi‑Fi</text></g><text x="220" y="78" class="g big" font-weight="700">AI 管家</text><text x="220" y="124" class="m small">随伴、推荐、解答，一路更懂您</text><g><rect x="1270" y="35" width="115" height="56" rx="16" class="card"/><text x="1308" y="71" class="t small">24°C</text><rect x="1405" y="35" width="115" height="56" rx="16" class="card"/><text x="1441" y="71" class="t small">14:30</text><rect x="1540" y="35" width="80" height="56" rx="16" class="card"/><text x="1560" y="70" class="t small">Wi‑Fi</text></g><rect x="210" y="140" width="760" height="680" rx="20" class="card"/><circle cx="270" cy="210" r="34" fill="#111" stroke="#d8a668"/><text x="252" y="220" class="g mid">AI</text><rect x="330" y="170" width="390" height="96" rx="14" fill="#182335" stroke="#344052"/><text x="350" y="212" class="t small">您好，我是您的 AI 问导管家，</text><text x="350" y="248" class="t small">有问题尽管问我，我随时为您服务~</text><rect x="560" y="285" width="310" height="62" rx="14" fill="#111d2e" stroke="#d8a668"/><text x="586" y="325" class="t small">附近有什么适合晚餐的地方?</text><text x="560" y="380" class="m" font-size="18">14:28</text><circle cx="270" cy="430" r="34" fill="#111" stroke="#d8a668"/><text x="252" y="440" class="g mid">AI</text><rect x="330" y="390" width="440" height="180" rx="14" fill="#182335" stroke="#344052"/><text x="355" y="435" class="t small">为您推荐以下晚餐好去处：</text><text x="355" y="480" class="t" font-size="20">精致餐厅：环境优雅，适合约会或商务宴请</text><text x="355" y="520" class="t" font-size="20">地道风味：本地特色，口味地道，性价比高</text><text x="355" y="560" class="t" font-size="20">人气推荐：评分高，口碑好，备受本地人喜爱</text><g><rect x="235" y="620" width="170" height="56" rx="12" class="btn"/><text x="285" y="656" class="t small">附近美食</text><rect x="420" y="620" width="170" height="56" rx="12" class="btn"/><text x="470" y="656" class="t small">景点推荐</text><rect x="605" y="620" width="170" height="56" rx="12" class="btn"/><text x="655" y="656" class="t small">附近商场</text><rect x="790" y="620" width="160" height="56" rx="12" class="btn"/><text x="828" y="656" class="t small">行程小贴士</text></g><rect x="235" y="700" width="710" height="68" rx="14" fill="#07111f" stroke="#d8a668"/><text x="265" y="742" class="m small">请输入您的问题...</text><path d="M875 718l48 18l-48 18z" fill="#f0c27a"/><text x="470" y="800" class="m" font-size="18">内容由 AI 生成，仅供参考</text><rect x="995" y="140" width="640" height="680" rx="20" class="card"/><text x="1045" y="184" class="t mid">为您推荐</text><text x="1510" y="184" class="m small">换一批</text><g><rect x="1020" y="205" width="590" height="170" rx="14" fill="#101b2b" stroke="#344052"/><rect x="1040" y="225" width="270" height="130" rx="10" fill="#312012"/><text x="1350" y="260" class="t mid">云庭西餐厅</text><text x="1350" y="300" class="m small">西餐 ｜ 浪漫优雅</text><text x="1350" y="340" class="m small">1.2 公里</text><rect x="1435" y="315" width="130" height="42" rx="21" fill="none" stroke="#d8a668"/><text x="1460" y="342" class="g" font-size="20">查看详情</text><rect x="1020" y="395" width="590" height="170" rx="14" fill="#101b2b" stroke="#344052"/><rect x="1040" y="415" width="270" height="130" rx="10" fill="#4a1808"/><text x="1350" y="450" class="t mid">川渝小馆</text><text x="1350" y="490" class="m small">川菜 ｜ 地道风味</text><text x="1350" y="530" class="m small">1.6 公里</text><rect x="1435" y="505" width="130" height="42" rx="21" fill="none" stroke="#d8a668"/><text x="1460" y="532" class="g" font-size="20">查看详情</text><rect x="1020" y="585" width="590" height="170" rx="14" fill="#101b2b" stroke="#344052"/><rect x="1040" y="605" width="270" height="130" rx="10" fill="#332416"/><text x="1350" y="640" class="t mid">江畔·日料料理</text><text x="1350" y="680" class="m small">日料 ｜ 精致料理</text><text x="1350" y="720" class="m small">2.1 公里</text><rect x="1435" y="695" width="130" height="42" rx="21" fill="none" stroke="#d8a668"/><text x="1460" y="722" class="g" font-size="20">查看详情</text></g><rect x="210" y="840" width="1425" height="72" rx="18" class="card"/><text x="310" y="884" class="t mid">快速呼叫</text><text x="650" y="884" class="t mid">路线规划</text><text x="990" y="884" class="t mid">天气查询</text><text x="1325" y="884" class="t mid">翻译助手</text></svg>