<svg xmlns="http://www.w3.org/2000/svg" viewBox="0 0 1672 941"><defs><linearGradient id="bg" x1="0" y1="0" x2="1" y2="1"><stop stop-color="#020713"/><stop offset=".55" stop-color="#071321"/><stop offset="1" stop-color="#02050b"/></linearGradient><linearGradient id="gold" x1="0" x2="1"><stop stop-color="#f8d8a0"/><stop offset=".6" stop-color="#d8a05b"/><stop offset="1" stop-color="#8c5d31"/></linearGradient><style>.t{font-family:Inter,'PingFang SC','Microsoft YaHei',Arial,sans-serif;fill:#f7f2ea}.m{fill:#98a3b6}.g{fill:#f0c27a}.card{fill:#0d1726;stroke:#354154;stroke-width:1.2}.nav{font-size:25px}.small{font-size:22px}.mid{font-size:30px}.big{font-size:56px}.thumb{fill:#17263a;stroke:#344052}.photo1{fill:#152e4a}.photo2{fill:#312412}.photo3{fill:#102a21}</style></defs><rect width="1672" height="941" fill="url(#bg)"/><path d="M160 0v941" stroke="#354153"/><g><text x="50" y="170" class="t nav">首页</text><text x="50" y="270" class="t nav">行程</text><text x="50" y="370" class="t nav">服务</text><text x="38" y="470" class="t nav">AI 管家</text><rect x="0" y="510" width="160" height="105" rx="14" fill="#111b2c" stroke="#d8a668"/><rect x="0" y="510" width="10" height="105" fill="url(#gold)"/><text x="50" y="580" class="g nav">娱乐</text><text x="50" y="705" class="t nav">Wi‑Fi</text></g><text x="190" y="78" class="g big" font-weight="700">娱乐</text><text x="190" y="122" class="m small">放松心情，享受旅途时光</text><text x="190" y="168" class="t small">音乐</text><path d="M190 183h60" stroke="#f0c27a" stroke-width="3"/><text x="320" y="168" class="m small">资讯</text><text x="440" y="168" class="m small">段子</text><text x="560" y="168" class="m small">视频</text><g><rect x="1280" y="35" width="115" height="56" rx="16" class="card"/><text x="1318" y="71" class="t small">24°C</text><rect x="1415" y="35" width="115" height="56" rx="16" class="card"/><text x="1451" y="71" class="t small">14:30</text><rect x="1548" y="35" width="80" height="56" rx="16" class="card"/><text x="1568" y="70" class="t small">Wi‑Fi</text></g><rect x="180" y="190" width="1450" height="210" rx="20" class="card"/><rect x="205" y="210" width="370" height="170" rx="12" class="photo1"/><path d="M220 350c70-80 150-120 340-95" stroke="#f0c27a" stroke-width="3" fill="none"/><text x="620" y="250" class="t mid">星空下的旅途</text><text x="620" y="286" class="m small">Gentle Journey</text><text x="620" y="330" class="m" font-size="18">01:42</text><path d="M685 326h320" stroke="#475266" stroke-width="4"/><path d="M685 326h150" stroke="#f0c27a" stroke-width="5"/><text x="1020" y="330" class="m" font-size="18">04:35</text><circle cx="790" cy="365" r="34" fill="none" stroke="#d8a668"/><text x="778" y="377" class="g mid">Ⅱ</text><path d="M1150 300c160-90 270 90 420 0" stroke="#f0c27a" stroke-width="4" fill="none"/><path d="M1160 330c140-55 270 55 410 0" stroke="#f0c27a" stroke-width="3" fill="none" opacity=".6"/><g><rect x="180" y="420" width="460" height="300" rx="18" class="card"/><text x="220" y="462" class="t mid">热门资讯</text><rect x="210" y="490" width="120" height="70" rx="8" class="photo1"/><text x="350" y="520" class="t" font-size="20">新能源汽车市场迎来新一轮政策利好</text><text x="350" y="552" class="m" font-size="18">36分钟前</text><rect x="210" y="575" width="120" height="70" rx="8" class="photo2"/><text x="350" y="605" class="t" font-size="20">中国空间站最新影像曝光</text><text x="350" y="637" class="m" font-size="18">1小时前</text><rect x="210" y="660" width="120" height="70" rx="8" class="photo3"/><text x="350" y="690" class="t" font-size="20">秋日自驾路线推荐：最美湖山环线</text><text x="350" y="722" class="m" font-size="18">2小时前</text></g><g><rect x="655" y="420" width="455" height="300" rx="18" class="card"/><text x="695" y="462" class="t mid">搞笑段子</text><text x="690" y="510" class="t" font-size="20">导航说前方拥堵，我说那我走路吧。</text><text x="690" y="542" class="m" font-size="18">它说：已为您规划步行路线... 😂  1.2万</text><text x="690" y="600" class="t" font-size="20">为什么电动车不怕堵车？因为...</text><text x="690" y="632" class="m" font-size="18">它有“电”就行，别的车可没这待遇！ 9823</text><text x="690" y="690" class="t" font-size="20">朋友问我为什么总喜欢自驾游？</text><text x="690" y="722" class="m" font-size="18">因为方向盘在手，烦恼都往后走 😎 7564</text></g><g><rect x="1125" y="420" width="505" height="300" rx="18" class="card"/><text x="1165" y="462" class="t mid">精选短视频</text><rect x="1160" y="490" width="150" height="72" rx="8" class="photo1"/><text x="1330" y="520" class="t" font-size="20">海岸公路的日落时刻</text><text x="1330" y="552" class="m" font-size="18">12.4万次播放</text><rect x="1160" y="580" width="150" height="72" rx="8" class="photo3"/><text x="1330" y="610" class="t" font-size="20">林间偶遇小鹿</text><text x="1330" y="642" class="m" font-size="18">8.7万次播放</text><rect x="1160" y="670" width="150" height="72" rx="8" class="photo2"/><text x="1330" y="700" class="t" font-size="20">在星空下露营</text><text x="1330" y="732" class="m" font-size="18">15.6万次播放</text></g><rect x="180" y="735" width="1450" height="175" rx="18" class="card"/><text x="215" y="780" class="t mid">轻松电台</text><g><rect x="205" y="800" width="260" height="90" rx="12" class="photo1"/><text x="230" y="842" class="t small">城市漫游</text><text x="230" y="872" class="m" font-size="18">City Walk</text><rect x="485" y="800" width="260" height="90" rx="12" class="photo2"/><text x="510" y="842" class="t small">治愈时光</text><text x="510" y="872" class="m" font-size="18">Healing Time</text><rect x="765" y="800" width="260" height="90" rx="12" class="photo1"/><text x="790" y="842" class="t small">深夜星空</text><text x="790" y="872" class="m" font-size="18">Night Sky</text><rect x="1045" y="800" width="260" height="90" rx="12" class="photo2"/><text x="1070" y="842" class="t small">民谣故事</text><text x="1070" y="872" class="m" font-size="18">Folk Stories</text><rect x="1325" y="800" width="260" height="90" rx="12" class="photo2"/><text x="1350" y="842" class="t small">经典怀旧</text><text x="1350" y="872" class="m" font-size="18">Classic Hits</text></g></svg>