<svg xmlns="http://www.w3.org/2000/svg" viewBox="0 0 1672 941"><defs><linearGradient id="g" x1="0" y1="0" x2="1" y2="1"><stop stop-color="#020713"/><stop offset=".55" stop-color="#071321"/><stop offset="1" stop-color="#02050b"/></linearGradient><linearGradient id="gold" x1="0" x2="1"><stop stop-color="#f5d7a4"/><stop offset=".55" stop-color="#d7a35f"/><stop offset="1" stop-color="#8d5d2d"/></linearGradient><filter id="glow"><feGaussianBlur stdDeviation="4" result="b"/><feMerge><feMergeNode in="b"/><feMergeNode in="SourceGraphic"/></feMerge></filter><style>.t{font-family:Inter,'PingFang SC','Microsoft YaHei',Arial,sans-serif;fill:#f5f2ea}.muted{fill:#9ba5b8}.gold{fill:#f0c27a}.card{fill:#0c1625;stroke:#344052;stroke-width:1.1;rx:22}.thin{stroke:#d8a668;stroke-width:2;fill:none}.icon{stroke:#f0c27a;stroke-width:4;fill:none;stroke-linecap:round;stroke-linejoin:round}.small{font-size:22px}.mid{font-size:30px}.big{font-size:54px}.nav{font-size:25px}.label{font-size:20px;fill:#a5afc0}</style></defs><rect width="1672" height="941" fill="url(#g)"/><path d="M232 0v941" stroke="#354153"/><g opacity=".28"><circle cx="1370" cy="790" r="430" fill="#4a2b14"/><circle cx="730" cy="80" r="360" fill="#1d3b66"/></g><g><rect x="0" y="70" width="218" height="92" rx="14" fill="#111b2c" stroke="#d8a668"/><rect x="0" y="70" width="12" height="92" fill="url(#gold)"/><text x="70" y="130" class="t nav gold">首页</text><text x="62" y="258" class="t nav">行程</text><text x="62" y="357" class="t nav">服务</text><text x="55" y="456" class="t nav">AI 管家</text><text x="62" y="555" class="t nav">娱乐</text><text x="62" y="654" class="t nav">Wi‑Fi</text><text x="62" y="753" class="t nav">设置</text><rect x="24" y="820" width="178" height="66" rx="12" fill="none" stroke="#d8a668"/><text x="64" y="861" class="t nav gold">一键呼叫</text></g><text x="276" y="78" class="gold" font-size="48" font-weight="700">尊享旅程</text><text x="276" y="125" class="muted small">欢迎乘坐，祝您旅途愉快</text><g><rect x="1250" y="35" width="115" height="56" rx="16" class="card"/><text x="1287" y="71" class="t small">24°C</text><rect x="1385" y="35" width="115" height="56" rx="16" class="card"/><text x="1421" y="71" class="t small">14:30</text><rect x="1522" y="35" width="80" height="56" rx="16" class="card"/><path d="M1545 61q17-15 34 0M1554 70q8-7 16 0" class="icon" stroke-width="3"/></g><g><rect x="268" y="148" width="1360" height="172" rx="20" fill="#0c1828" stroke="#384357"/><path d="M315 286C580 205 735 335 956 230c164-78 304-95 600-80" stroke="#f0c27a" stroke-width="5" fill="none" opacity=".9"/><path d="M690 270c250-80 470-105 870-90" stroke="#e4ecff" stroke-width="4" opacity=".45"/><text x="315" y="210" class="t" font-size="42">下午好，</text><text x="315" y="262" class="t" font-size="40">愿您享受这段舒适旅程</text><path d="M315 293h78" stroke="#f0c27a" stroke-width="5" filter="url(#glow)"/></g><g><rect x="268" y="334" width="432" height="272" rx="18" class="card"/><text x="320" y="376" class="t mid">行程概览</text><text x="288" y="441" class="label">预计到达</text><text x="288" y="502" class="t big">18:45</text><text x="288" y="560" class="label">剩余距离</text><text x="288" y="614" class="t big">12.4</text><text x="405" y="614" class="t small">公里</text><rect x="446" y="394" width="238" height="196" rx="12" fill="#0a1320" stroke="#2e394b"/><path d="M470 547 L520 547 L565 500 L620 500 L650 470" class="thin" stroke-width="6"/><circle cx="470" cy="547" r="10" fill="#2c84ff"/><path d="M650 470l16 16l16-16l-16-16z" fill="#f0c27a"/></g><g><rect x="716" y="334" width="432" height="272" rx="18" class="card"/><text x="770" y="376" class="t mid">舒适体验</text><text x="750" y="441" class="label">车内温度</text><text x="750" y="502" class="t big">24°C</text><text x="750" y="546" class="t small">舒适宜人</text><path d="M1010 470c60-48 98-38 108 48" stroke="#6b7484" fill="none" stroke-width="5"/><path d="M895 480c55 5 73-40 128-35M895 520c55 5 75-35 128-30" class="thin" opacity=".8"/><rect x="728" y="534" width="402" height="56" rx="14" fill="#08111e" stroke="#263345"/><text x="755" y="570" class="gold small">车内空气 优</text><text x="895" y="570" class="t small">湿度 45%</text><text x="1030" y="570" class="t small">PM2.5 12</text></g><g><rect x="1164" y="334" width="464" height="272" rx="18" class="card"/><text x="1190" y="376" class="t mid">便捷服务</text><g><rect x="1185" y="407" width="132" height="176" rx="14" fill="#142033" stroke="#344052"/><text x="1217" y="529" class="t small">矿泉水</text><text x="1208" y="562" class="muted" font-size="18">免费提供</text><rect x="1338" y="407" width="132" height="176" rx="14" fill="#142033" stroke="#344052"/><text x="1378" y="529" class="t small">纸巾</text><text x="1360" y="562" class="muted" font-size="18">免费提供</text><rect x="1492" y="407" width="132" height="176" rx="14" fill="#142033" stroke="#344052"/><text x="1523" y="529" class="t small">充电线</text><text x="1500" y="562" class="muted" font-size="18">支持多种接口</text></g></g><g><rect x="268" y="620" width="432" height="166" rx="18" class="card"/><text x="320" y="662" class="t mid">AI 管家</text><rect x="288" y="688" width="185" height="76" rx="14" fill="#142033" stroke="#344052"/><text x="360" y="730" class="t small">智能问答</text><text x="360" y="758" class="muted" font-size="17">为您解答</text><rect x="494" y="688" width="185" height="76" rx="14" fill="#142033" stroke="#344052"/><text x="566" y="730" class="t small">景点推荐</text><text x="566" y="758" class="muted" font-size="17">发现周边</text></g><g><rect x="716" y="620" width="432" height="166" rx="18" class="card"/><text x="770" y="662" class="t mid">娱乐</text><rect x="745" y="686" width="110" height="80" rx="14" fill="#142033" stroke="#344052"/><text x="778" y="739" class="t small">音乐</text><rect x="873" y="686" width="110" height="80" rx="14" fill="#142033" stroke="#344052"/><text x="906" y="739" class="t small">资讯</text><rect x="1001" y="686" width="110" height="80" rx="14" fill="#142033" stroke="#344052"/><text x="1025" y="739" class="t small">有声书</text></g><g><rect x="1164" y="620" width="464" height="166" rx="18" class="card"/><text x="1210" y="662" class="t mid">Wi‑Fi</text><text x="1198" y="724" class="t mid">RideLux_8888</text><circle cx="1202" cy="756" r="6" fill="#48d465"/><text x="1218" y="764" class="muted small">已连接</text><rect x="1425" y="708" width="160" height="48" rx="24" fill="none" stroke="#d8a668"/><text x="1455" y="739" class="gold small">查看 Wi‑Fi</text></g><g><rect x="268" y="808" width="1360" height="116" rx="26" class="card"/><text x="350" y="886" class="t mid">座椅调节</text><text x="585" y="886" class="t mid">氛围灯</text><circle cx="884" cy="850" r="68" fill="#241c15" stroke="#d8a668" filter="url(#glow)"/><text x="843" y="884" class="gold mid">行程中</text><text x="1092" y="886" class="t mid">遮阳帘</text><text x="1360" y="886" class="t mid">静音模式</text></g></svg>