<svg xmlns="http://www.w3.org/2000/svg" viewBox="0 0 1672 941"><defs><linearGradient id="bg" x1="0" y1="0" x2="1" y2="1"><stop stop-color="#020713"/><stop offset=".55" stop-color="#071321"/><stop offset="1" stop-color="#02050b"/></linearGradient><linearGradient id="gold" x1="0" x2="1"><stop stop-color="#f8d8a0"/><stop offset=".6" stop-color="#d8a05b"/><stop offset="1" stop-color="#8c5d31"/></linearGradient><filter id="glow"><feGaussianBlur stdDeviation="5" result="b"/><feMerge><feMergeNode in="b"/><feMergeNode in="SourceGraphic"/></feMerge></filter><style>.t{font-family:Inter,'PingFang SC','Microsoft YaHei',Arial,sans-serif;fill:#f7f2ea}.m{fill:#98a3b6}.g{fill:#f0c27a}.card{fill:#0d1726;stroke:#354154;stroke-width:1.2}.nav{font-size:25px}.small{font-size:22px}.mid{font-size:32px}.big{font-size:58px}.icon{stroke:#f0c27a;stroke-width:6;fill:none;stroke-linecap:round;stroke-linejoin:round}</style></defs><rect width="1672" height="941" fill="url(#bg)"/><path d="M205 0v941" stroke="#354153"/><g><text x="70" y="190" class="t nav">首页</text><text x="70" y="290" class="t nav">行程</text><rect x="0" y="315" width="205" height="92" rx="14" fill="#111b2c" stroke="#d8a668"/><rect x="0" y="315" width="12" height="92" fill="url(#gold)"/><text x="70" y="374" class="g nav">服务</text><text x="58" y="484" class="t nav">AI 管家</text><text x="70" y="584" class="t nav">娱乐</text><text x="70" y="684" class="t nav">Wi‑Fi</text></g><text x="270" y="88" class="g big" font-weight="700">服务</text><text x="270" y="132" class="m small">无需开口，轻点即可通知司机</text><g><rect x="1240" y="38" width="115" height="56" rx="16" class="card"/><text x="1278" y="74" class="t small">24°C</text><rect x="1376" y="38" width="115" height="56" rx="16" class="card"/><text x="1412" y="74" class="t small">14:30</text><rect x="1512" y="38" width="80" height="56" rx="16" class="card"/><text x="1532" y="73" class="t small">Wi‑Fi</text></g><g><rect x="262" y="152" width="422" height="190" rx="18" class="card"/><path d="M455 205h45v70q0 40-45 40t-45-40v-70h45zM420 205h70" class="icon"/><text x="420" y="318" class="t mid">矿泉水</text><rect x="702" y="152" width="422" height="190" rx="18" class="card"/><path d="M860 255h110v55H860zM875 248q50-50 80 0" class="icon"/><text x="884" y="318" class="t mid">纸巾</text><rect x="1142" y="152" width="422" height="190" rx="18" class="card"/><path d="M1320 205v80q0 35 35 35t35-35v-80M1310 205h20M1380 205h20" class="icon"/><text x="1308" y="318" class="t mid">充电线</text><rect x="262" y="360" width="422" height="190" rx="18" class="card"/><path d="M470 400v100M420 430l100 40M520 430l-100 40M525 430l34-34M525 430l34 34" class="icon"/><text x="402" y="522" class="t mid">调高空调</text><rect x="702" y="360" width="422" height="190" rx="18" class="card"/><path d="M910 400v100M860 430l100 40M960 430l-100 40M970 480l34-34M970 480l34 34" class="icon"/><text x="842" y="522" class="t mid">调低空调</text><rect x="1142" y="360" width="422" height="190" rx="18" class="card"/><path d="M1290 460h35l55 45v-95l-55 45h-35M1410 415l-115 115" class="icon"/><text x="1282" y="522" class="t mid">需要安静</text></g><rect x="262" y="565" width="1302" height="72" rx="18" class="card"/><circle cx="315" cy="601" r="24" fill="none" stroke="#f0c27a" stroke-width="4"/><path d="M304 601l10 10l20-24" stroke="#f0c27a" stroke-width="4" fill="none"/><text x="372" y="611" class="t mid">已通知司机 · 预计 1 分钟内响应</text><path d="M1190 622c150-60 260 20 360-55" stroke="#f0c27a" stroke-width="3" fill="none" opacity=".8" filter="url(#glow)"/><text x="262" y="675" class="m small">最近请求</text><rect x="262" y="690" width="1302" height="56" rx="14" class="card"/><text x="330" y="727" class="t small">已申请：矿泉水</text><text x="1370" y="727" class="m small">14:28</text><text x="1485" y="727" class="g small">已完成</text><rect x="262" y="760" width="1302" height="56" rx="14" class="card"/><text x="330" y="797" class="t small">已申请：调低空调</text><text x="1370" y="797" class="m small">14:21</text><text x="1485" y="797" class="g small">已完成</text><rect x="262" y="830" width="1302" height="76" rx="18" fill="url(#gold)"/><text x="744" y="880" fill="#0b0d12" font-size="36" font-family="Inter,'PingFang SC','Microsoft YaHei'" font-weight="700">一键呼叫服务</text><text x="600" y="928" class="m small">您的请求将静默通知司机，保障您的隐私与舒适体验</text></svg>