<svg xmlns="http://www.w3.org/2000/svg" viewBox="0 0 1672 941"><defs><linearGradient id="bg" x1="0" y1="0" x2="1" y2="1"><stop stop-color="#020713"/><stop offset=".6" stop-color="#071421"/><stop offset="1" stop-color="#02050b"/></linearGradient><linearGradient id="gold" x1="0" x2="1"><stop stop-color="#f5d7a4"/><stop offset=".55" stop-color="#d7a35f"/><stop offset="1" stop-color="#8d5d2d"/></linearGradient><filter id="glow"><feGaussianBlur stdDeviation="4" result="b"/><feMerge><feMergeNode in="b"/><feMergeNode in="SourceGraphic"/></feMerge></filter><style>.t{font-family:Inter,'PingFang SC','Microsoft YaHei',Arial,sans-serif;fill:#f5f2ea}.m{fill:#9ba5b8}.g{fill:#f0c27a}.card{fill:#0c1625;stroke:#344052;stroke-width:1.1;rx:22}.nav{font-size:25px}.small{font-size:22px}.mid{font-size:30px}.big{font-size:54px}.line{stroke:#f0c27a;stroke-width:7;fill:none;stroke-linecap:round;filter:url(#glow)}.grid{stroke:#1b2d42;stroke-width:1;opacity:.45}</style></defs><rect width="1672" height="941" fill="url(#bg)"/><path d="M232 0v941" stroke="#354153"/><g><text x="62" y="130" class="t nav">首页</text><rect x="0" y="165" width="218" height="92" rx="14" fill="#111b2c" stroke="#d8a668"/><rect x="0" y="165" width="12" height="92" fill="url(#gold)"/><text x="62" y="225" class="g nav">行程</text><text x="62" y="357" class="t nav">服务</text><text x="55" y="456" class="t nav">AI 管家</text><text x="62" y="555" class="t nav">娱乐</text><text x="62" y="654" class="t nav">Wi‑Fi</text><rect x="24" y="820" width="178" height="66" rx="12" fill="none" stroke="#d8a668"/><text x="64" y="861" class="g nav">一键呼叫</text></g><text x="260" y="78" class="g" font-size="58" font-weight="700">行程</text><text x="260" y="126" class="m small">实时掌握路线、时间与到达进度</text><g><rect x="1260" y="35" width="115" height="56" rx="16" class="card"/><text x="1297" y="71" class="t small">24°C</text><rect x="1395" y="35" width="115" height="56" rx="16" class="card"/><text x="1431" y="71" class="t small">14:30</text><rect x="1532" y="35" width="80" height="56" rx="16" class="card"/><text x="1552" y="70" class="t small">Wi‑Fi</text></g><g><rect x="255" y="150" width="1378" height="350" rx="18" fill="#07101c" stroke="#384357"/><g opacity=".75">{GRID}</g><path d="M620 430 C760 390 765 330 905 330 S1105 350 1240 280 S1420 215 1510 175" class="line"/><circle cx="620" cy="430" r="12" fill="#fff"/><ellipse cx="608" cy="430" rx="35" ry="18" fill="#cfd6df" transform="rotate(-18 608 430)"/><path d="M1510 175l22 38l22-38c0-18-44-18-44 0z" fill="#f0c27a" filter="url(#glow)"/><rect x="285" y="178" width="360" height="175" rx="18" fill="#0f1b2c" stroke="#344052"/><text x="335" y="245" class="t mid">前方 600 米右转</text><text x="335" y="295" class="m small">进入金融街南街</text><path d="M335 326h55m25 0h35m25 0h35m25 0h45" stroke="#738094" stroke-width="7" stroke-linecap="round"/><path d="M335 326h55" stroke="#f0c27a" stroke-width="7" stroke-linecap="round"/></g><g>{STATS}</g><g><rect x="255" y="650" width="1378" height="132" rx="18" class="card"/><text x="290" y="706" class="m small">上车点：</text><text x="290" y="748" class="t mid">北京金融街购物中心</text><text x="290" y="776" class="m small">14:12 上车</text><path d="M635 705h650" stroke="#677184" stroke-width="4"/><path d="M635 705h250" stroke="#f0c27a" stroke-width="6"/><circle cx="635" cy="705" r="16" fill="#0c1625" stroke="#f0c27a" stroke-width="5"/><circle cx="885" cy="705" r="18" fill="#0c1625" stroke="#f0c27a" stroke-width="5" filter="url(#glow)"/><circle cx="1060" cy="705" r="13" fill="#677184"/><circle cx="1240" cy="705" r="13" fill="#677184"/><text x="820" y="755" class="m small">金融街南街</text><text x="845" y="783" class="m small">14:16</text><text x="1000" y="755" class="m small">复兴门内大街</text><text x="1035" y="783" class="m small">14:24</text><text x="1198" y="755" class="m small">建国门桥</text><text x="1210" y="783" class="m small">14:32</text><text x="1370" y="706" class="m small">目的地：</text><text x="1370" y="748" class="t mid">国贸三期写字楼</text><text x="1370" y="776" class="m small">14:48 预计到达</text></g><g><rect x="255" y="802" width="410" height="104" rx="18" class="card"/><text x="370" y="850" class="t mid">路况提示</text><text x="370" y="884" class="m small">前方道路畅通</text><rect x="685" y="802" width="440" height="104" rx="18" class="card"/><text x="795" y="850" class="t mid">舒适模式</text><text x="795" y="884" class="m small">空调 24°C | 座椅通风</text><rect x="1148" y="802" width="485" height="104" rx="18" class="card"/><text x="1260" y="850" class="t mid">平稳驾驶提醒</text><text x="1260" y="884" class="m small">本次行程平稳度 92 分</text></g></svg>