<svg xmlns="http://www.w3.org/2000/svg" viewBox="0 0 1672 941"><defs><linearGradient id="bg" x1="0" y1="0" x2="1" y2="1"><stop stop-color="#020713"/><stop offset=".55" stop-color="#071321"/><stop offset="1" stop-color="#02050b"/></linearGradient><linearGradient id="gold" x1="0" x2="1"><stop stop-color="#f8d8a0"/><stop offset=".6" stop-color="#d8a05b"/><stop offset="1" stop-color="#8c5d31"/></linearGradient><filter id="glow"><feGaussianBlur stdDeviation="5" result="b"/><feMerge><feMergeNode in="b"/><feMergeNode in="SourceGraphic"/></feMerge></filter><style>.t{font-family:Inter,'PingFang SC','Microsoft YaHei',Arial,sans-serif;fill:#f7f2ea}.m{fill:#98a3b6}.g{fill:#f0c27a}.card{fill:#0d1726;stroke:#354154;stroke-width:1.2}.nav{font-size:25px}.small{font-size:22px}.mid{font-size:30px}.big{font-size:56px}.hero{fill:#0b1524;stroke:#d8a668}.row{fill:#101b2b;stroke:#344052}.wifi{stroke:#f0c27a;stroke-width:14;fill:none;stroke-linecap:round;filter:url(#glow)}</style></defs><rect width="1672" height="941" fill="url(#bg)"/><path d="M160 0v941" stroke="#354153"/><g><text x="50" y="130" class="t nav">首页</text><text x="50" y="230" class="t nav">行程</text><text x="50" y="330" class="t nav">服务</text><text x="38" y="430" class="t nav">AI 管家</text><text x="50" y="530" class="t nav">娱乐</text><rect x="0" y="560" width="160" height="92" rx="14" fill="#111b2c" stroke="#d8a668"/><rect x="0" y="560" width="10" height="92" fill="url(#gold)"/><text x="50" y="620" class="g nav">Wi‑Fi</text><text x="50" y="730" class="t nav">设置</text></g><text x="220" y="78" class="g big" font-weight="700">Wi‑Fi</text><text x="220" y="124" class="m small">高速网络，畅快连接</text><g><rect x="1270" y="35" width="115" height="56" rx="16" class="card"/><text x="1308" y="71" class="t small">24°C</text><rect x="1405" y="35" width="115" height="56" rx="16" class="card"/><text x="1441" y="71" class="t small">14:30</text><rect x="1540" y="35" width="80" height="56" rx="16" class="card"/><text x="1560" y="70" class="t small">Wi‑Fi</text></g><rect x="220" y="145" width="1410" height="230" rx="20" class="hero"/><g opacity=".45"><path d="M280 320C500 190 670 380 900 260s390-80 650 40" stroke="#31445d" stroke-width="3" fill="none"/><path d="M690 330c220-95 470-120 780-52" stroke="#f0c27a" stroke-width="2" fill="none"/></g><text x="255" y="275" class="t" font-size="58">RideLux_8888</text><rect x="255" y="303" width="155" height="50" rx="25" fill="none" stroke="#d8a668"/><circle cx="286" cy="328" r="8" fill="#55d66f"/><text x="310" y="337" class="g small">已连接</text><path d="M1010 215q90-75 180 0M1045 260q55-48 110 0M1080 302q20-22 40 0" class="wifi"/><circle cx="1100" cy="330" r="16" fill="#f0c27a" filter="url(#glow)"/><text x="1435" y="340" class="g small">安全保护中</text><rect x="220" y="390" width="450" height="260" rx="18" class="card"/><text x="260" y="436" class="t mid">网络密码</text><rect x="260" y="472" width="370" height="70" rx="12" class="row"/><text x="280" y="516" class="t mid">A88888888</text><text x="420" y="585" class="g small">已复制</text><rect x="260" y="600" width="170" height="56" rx="12" class="row"/><text x="300" y="636" class="t small">复制密码</text><rect x="455" y="600" width="170" height="56" rx="12" class="row"/><text x="493" y="636" class="t small">重新显示</text><rect x="690" y="390" width="420" height="260" rx="18" class="card"/><text x="735" y="436" class="t mid">扫码连接</text><rect x="810" y="460" width="165" height="165" rx="8" fill="#fff" stroke="#d8a668" stroke-width="4"/><g fill="#111"><rect x="825" y="475" width="30" height="30"/><rect x="930" y="475" width="30" height="30"/><rect x="825" y="580" width="30" height="30"/><rect x="870" y="510" width="18" height="18"/><rect x="900" y="540" width="22" height="22"/><rect x="870" y="580" width="18" height="18"/><rect x="930" y="535" width="18" height="18"/></g><text x="790" y="642" class="m small">使用手机扫码快速连接</text><rect x="1130" y="390" width="500" height="260" rx="18" class="card"/><text x="1170" y="436" class="t mid">连接状态</text><rect x="1160" y="465" width="430" height="42" rx="9" class="row"/><text x="1175" y="493" class="t small">当前状态</text><text x="1480" y="493" class="t small">已连接</text><rect x="1160" y="518" width="430" height="42" rx="9" class="row"/><text x="1175" y="546" class="t small">网络强度</text><text x="1508" y="546" class="t small">强</text><rect x="1160" y="571" width="430" height="42" rx="9" class="row"/><text x="1175" y="599" class="t small">安全性</text><text x="1480" y="599" class="t small">WPA2</text><rect x="1160" y="624" width="430" height="42" rx="9" class="row"/><text x="1175" y="652" class="t small">已连接设备</text><text x="1500" y="652" class="t small">3 台</text><rect x="220" y="668" width="1410" height="90" rx="18" class="card"/><text x="300" y="720" class="t mid">1  打开手机 Wi‑Fi</text><text x="650" y="720" class="t mid">2  选择 RideLux_8888</text><text x="1120" y="720" class="t mid">3  输入密码或扫码连接</text><rect x="220" y="775" width="1410" height="132" rx="20" class="card"/><text x="260" y="823" class="t mid">系统与舒适控制</text><text x="310" y="878" class="t small">空调温度</text><text x="310" y="905" class="m" font-size="18">24.0°C</text><text x="580" y="878" class="t small">座椅调节</text><text x="580" y="905" class="m" font-size="18">通风·加热</text><text x="850" y="878" class="t small">氛围灯</text><text x="850" y="905" class="m" font-size="18">柔和模式</text><text x="1120" y="878" class="t small">窗帘控制</text><text x="1120" y="905" class="m" font-size="18">全关</text><text x="1390" y="878" class="t small">隐私模式</text><text x="1390" y="905" class="m" font-size="18">关闭</text></svg>