<svg xmlns="http://www.w3.org/2000/svg" viewBox="0 0 220 148">
  <defs>
    <linearGradient id="body" x1="39" y1="43" x2="178" y2="119" gradientUnits="userSpaceOnUse">
      <stop offset="0" stop-color="#70747a"/>
      <stop offset=".34" stop-color="#24272c"/>
      <stop offset=".72" stop-color="#111318"/>
      <stop offset="1" stop-color="#3c4148"/>
    </linearGradient>
    <linearGradient id="glass" x1="81" y1="30" x2="166" y2="72" gradientUnits="userSpaceOnUse">
      <stop offset="0" stop-color="#3f4650"/>
      <stop offset=".8" stop-color="#0b1017"/>
    </linearGradient>
    <filter id="shadow" x="-20%" y="-20%" width="140%" height="150%">
      <feDropShadow dx="0" dy="9" stdDeviation="6" flood-color="#000" flood-opacity=".45"/>
    </filter>
  </defs>
  <ellipse cx="112" cy="127" rx="82" ry="13" fill="#000" opacity=".28"/>
  <g filter="url(#shadow)">
    <path d="M19 94c6-25 29-45 65-57 32-10 74-11 97 13 10 10 18 25 22 40 3 11-3 21-14 23-39 8-89 11-142 2-19-3-32-10-28-21Z" fill="url(#body)" stroke="#878b91" stroke-width="2.5"/>
    <path d="M71 44c24-17 71-20 102 5 4 3 5 9 2 13l-83-3c-11 0-20-5-21-15Z" fill="url(#glass)" stroke="#9aa1aa" stroke-width="2"/>
    <path d="M74 60c-16 3-31 10-43 21 15 4 39 5 61 3l1-22c-6 0-13-1-19-2Z" fill="#20252d" stroke="#7b8088" stroke-width="1.6"/>
    <path d="M101 62l79 3c10 8 17 19 20 31-30 4-68 5-105 1l6-35Z" fill="#151a20" stroke="#656b75" stroke-width="1.6"/>
    <path d="M170 91c14 0 25 6 31 13-8 6-28 8-52 8-4-9 5-21 21-21Z" fill="#08090b"/>
    <path d="M30 91c16-2 35 0 51 5-3 10-18 17-35 16-16-1-26-8-16-21Z" fill="#0b0d10"/>
    <circle cx="55" cy="104" r="17" fill="#111318" stroke="#9da3aa" stroke-width="3"/>
    <circle cx="55" cy="104" r="8" fill="#343941" stroke="#c0c5ca" stroke-width="2"/>
    <circle cx="165" cy="104" r="18" fill="#111318" stroke="#9da3aa" stroke-width="3"/>
    <circle cx="165" cy="104" r="8" fill="#343941" stroke="#c0c5ca" stroke-width="2"/>
    <path d="M187 75c9 4 15 10 19 19-9 0-21-1-31-3 1-7 5-13 12-16Z" fill="#e8f6ff"/>
    <path d="M22 86c6-6 14-11 23-15l-5 14c-8 1-14 1-18 1Z" fill="#c40010"/>
    <path d="M82 61l-7 36M129 63l-2 40" stroke="#8b9098" stroke-width="1.8" opacity=".8"/>
    <path d="M85 40c25-8 62-7 83 7" stroke="#d8dde5" stroke-width="2" opacity=".42"/>
    <path d="M44 80c41 13 101 15 151 8" stroke="#cbd0d8" stroke-width="2" opacity=".36"/>
  </g>
</svg>
